<svg id="Layer_1" data-name="Layer 1" xmlns="http://www.w3.org/2000/svg" viewBox="0 0 200 40"><defs><style>.cls-1{fill:#87a4ff;}</style></defs><title>arrowArtboard 1</title><path id="binary" class="cls-1" d="M4.26,26.5V25.07a4.1,4.1,0,0,0,3.58,1.71c3.56,0,6.07-2.79,6.07-6.68S11.69,13.47,8,13.47A4.57,4.57,0,0,0,4.31,15V8H.5V26.5ZM10,20.13A2.86,2.86,0,0,1,7.15,23.3a2.89,2.89,0,0,1-2.89-3.17A2.84,2.84,0,0,1,7.15,17,2.82,2.82,0,0,1,10,20.13Zm8.75,6.37V13.78H14.88V26.5Zm5.38-7.29A2.06,2.06,0,0,1,26.26,17a2,2,0,0,1,2.07,2.2V26.5h3.89v-8c0-2.79-1.43-5.07-4.63-5.07A4.17,4.17,0,0,0,24,15.24V13.78H20.27V26.5h3.89Zm9,3.79c0,2,1.61,3.86,4.4,3.86a4,4,0,0,0,3.58-1.79,6.22,6.22,0,0,0,.13,1.43h3.51a12.5,12.5,0,0,1-.15-2V18.31c0-2.61-1.51-4.91-5.63-4.91-3.74,0-5.43,2.41-5.58,4.22l3.38.69A2,2,0,0,1,39,16.44c1.23,0,1.87.64,1.87,1.38,0,.44-.23.77-.92.87l-3,.46C34.86,19.46,33.19,20.74,33.19,23Zm5.73,1c-1.08,0-1.51-.64-1.51-1.31,0-.9.61-1.28,1.43-1.41l2.41-.38v.56C41.25,23.48,40.07,24,38.92,24ZM54.11,13.78a3.84,3.84,0,0,0-1-.13,3.59,3.59,0,0,0-3.3,1.84V13.78H46V26.5h3.89V20.95c0-2.53,1.41-3.46,3-3.46a5.28,5.28,0,0,1,1.23.13Zm7.18,17.61,7.83-17.61H65l-2.82,6.81-3.1-6.81H54.74l5.35,11-2.89,6.6Z"/><polygon id="Path-Copy" class="cls-1" points="18.57 12.71 18.57 8.82 14.68 8.82 14.68 12.71 18.57 12.71"/><path class="cls-1" d="M115.64,25.25h0a3.32,3.32,0,0,1-1.72,1.5,6.39,6.39,0,0,1-2.38.45,4.7,4.7,0,0,1-3.25-1.05,3.34,3.34,0,0,1-1.17-2.59,3.38,3.38,0,0,1,1.06-2.69,5.76,5.76,0,0,1,3.51-1.05h.2q2.47-.15,3.82-.2V18.7a3,3,0,0,0-.7-2.08,3.17,3.17,0,0,0-2.41-.76,3.6,3.6,0,0,0-2.31.6,2.76,2.76,0,0,0-.92,1.72h-1.88a4.18,4.18,0,0,1,1.6-2.95,5.94,5.94,0,0,1,3.53-.94,5.66,5.66,0,0,1,3.72,1.06,3.75,3.75,0,0,1,1.27,3v6.07q0,.51,0,1.13t.12,1.27h-2.08Zm0-4.18-3.23.15a5.22,5.22,0,0,0-2.47.59,1.81,1.81,0,0,0-.83,1.66,1.93,1.93,0,0,0,.76,1.55,3.1,3.1,0,0,0,2,.62,4.78,4.78,0,0,0,1.31-.18,4.2,4.2,0,0,0,1.21-.56,2.82,2.82,0,0,0,.89-1,2.7,2.7,0,0,0,.33-1.35Z"/><path class="cls-1" d="M128.91,18.72a7.87,7.87,0,0,0-.38-.91A4.22,4.22,0,0,0,128,17a2.72,2.72,0,0,0-1-.7,3.41,3.41,0,0,0-1.41-.27,4,4,0,0,0-3.07,1.32,5,5,0,0,0-1.21,3.5,5.23,5.23,0,0,0,1.05,3.33,3.73,3.73,0,0,0,3.13,1.35,3.07,3.07,0,0,0,2.25-.8,4.64,4.64,0,0,0,1.17-2l2,.24a8.9,8.9,0,0,1-.68,1.61,5.4,5.4,0,0,1-1.08,1.37,4.86,4.86,0,0,1-1.59,1,6,6,0,0,1-2.13.35,6.53,6.53,0,0,1-2.64-.51,5.59,5.59,0,0,1-2-1.41,6,6,0,0,1-1.2-2.05,7.36,7.36,0,0,1-.4-2.43,7,7,0,0,1,.5-2.7A6.19,6.19,0,0,1,121.12,16a5.82,5.82,0,0,1,2-1.3,6.48,6.48,0,0,1,2.36-.44,5.92,5.92,0,0,1,3.57,1.06,4.64,4.64,0,0,1,1.81,3.17Z"/><path class="cls-1" d="M140.41,25.25h0a3.32,3.32,0,0,1-1.72,1.5,6.39,6.39,0,0,1-2.38.45A4.7,4.7,0,0,1,133,26.16a3.34,3.34,0,0,1-1.17-2.59,3.38,3.38,0,0,1,1.06-2.69,5.76,5.76,0,0,1,3.51-1.05h.2q2.47-.15,3.82-.2V18.7a3,3,0,0,0-.7-2.08,3.17,3.17,0,0,0-2.41-.76,3.6,3.6,0,0,0-2.31.6,2.76,2.76,0,0,0-.92,1.72h-1.88a4.18,4.18,0,0,1,1.6-2.95,5.94,5.94,0,0,1,3.53-.94A5.66,5.66,0,0,1,141,15.36a3.75,3.75,0,0,1,1.27,3v6.07q0,.51,0,1.13t.12,1.27h-2.08Zm0-4.18-3.23.15a5.22,5.22,0,0,0-2.47.59,1.81,1.81,0,0,0-.83,1.66,1.93,1.93,0,0,0,.76,1.55,3.1,3.1,0,0,0,2,.62,4.78,4.78,0,0,0,1.31-.18,4.2,4.2,0,0,0,1.21-.56,2.82,2.82,0,0,0,.89-1,2.7,2.7,0,0,0,.33-1.35Z"/><path class="cls-1" d="M154,24.74h0a8.85,8.85,0,0,1-.59.87,4.53,4.53,0,0,1-.77.76,3.82,3.82,0,0,1-1.16.61,4.86,4.86,0,0,1-1.57.23,5.89,5.89,0,0,1-2.34-.46,5.39,5.39,0,0,1-1.88-1.33,6.16,6.16,0,0,1-1.24-2.07,7.46,7.46,0,0,1-.44-2.59,7.34,7.34,0,0,1,.5-2.83,5.54,5.54,0,0,1,1.33-2,5.46,5.46,0,0,1,1.82-1.14,5.7,5.7,0,0,1,2-.37,5.6,5.6,0,0,1,1.69.23,4.45,4.45,0,0,1,1.25.6,4.66,4.66,0,0,1,.82.72,7.15,7.15,0,0,1,.57.77h0V8.47H156V26.86H154Zm-1.17-7.37a4,4,0,0,0-5.66,0,4.8,4.8,0,0,0-1.14,3.47,5.4,5.4,0,0,0,1,3.35A3.39,3.39,0,0,0,150,25.5a3.67,3.67,0,0,0,3-1.33,5,5,0,0,0,1.1-3.31A4.81,4.81,0,0,0,152.87,17.36Z"/><path class="cls-1" d="M169.12,23.42a6.89,6.89,0,0,1-2.21,2.8,5.7,5.7,0,0,1-3.41,1,5.82,5.82,0,0,1-2.32-.45,5.4,5.4,0,0,1-1.82-1.27,5.74,5.74,0,0,1-1.19-1.91,6.55,6.55,0,0,1-.42-2.36,9.3,9.3,0,0,1,.4-2.8,6.58,6.58,0,0,1,1.16-2.21,5.33,5.33,0,0,1,4.28-1.91,5.64,5.64,0,0,1,4.26,1.65,6.52,6.52,0,0,1,1.59,4.71v.54H159.8a4.39,4.39,0,0,0,1.09,3.17,3.59,3.59,0,0,0,2.7,1.14,3.72,3.72,0,0,0,2.45-.81,3.52,3.52,0,0,0,.67-.72,4.07,4.07,0,0,0,.45-.84Zm-1.74-3.79A4.3,4.3,0,0,0,166.22,17a3.51,3.51,0,0,0-2.58-1,3.82,3.82,0,0,0-1.6.32,3.42,3.42,0,0,0-1.16.84,4,4,0,0,0-.72,1.16,4.29,4.29,0,0,0-.31,1.3Z"/><path class="cls-1" d="M185.8,19a3.21,3.21,0,0,0-.61-2.19,3,3,0,0,0-4,.26,3.43,3.43,0,0,0-.84,2.4v7.39h-1.91V19a3.26,3.26,0,0,0-.6-2.19,2.52,2.52,0,0,0-2-.67,2.72,2.72,0,0,0-2.08.93,3.4,3.4,0,0,0-.86,2.4v7.39H171V14.63h1.88v2h0A5.52,5.52,0,0,1,174.33,15a3.77,3.77,0,0,1,2.25-.59,3.81,3.81,0,0,1,1.38.23A3.09,3.09,0,0,1,179.57,16a4.91,4.91,0,0,1,.38.82,5.07,5.07,0,0,1,1.44-1.79,3.81,3.81,0,0,1,2.3-.61,4,4,0,0,1,3,1,4.15,4.15,0,0,1,1,3v8.37H185.8Z"/><path class="cls-1" d="M193.13,26.62l-5-12h2.18l3.74,10.13h0l3.77-10.13H200L192.86,32h-2.08Z"/><path class="cls-1" d="M93.22,21.63a1.94,1.94,0,0,0-1.95,2.12,2,2,0,1,0,3.9,0A1.94,1.94,0,0,0,93.22,21.63Z"/><path class="cls-1" d="M81.07,21.73H79.95V25.8h1.1a1.81,1.81,0,0,0,1.84-2A1.82,1.82,0,0,0,81.07,21.73Z"/><path class="cls-1" d="M86.92,6.3A13.72,13.72,0,1,0,100.65,20,13.72,13.72,0,0,0,86.92,6.3Zm4.46,7.53h.74v3.53a1.2,1.2,0,1,0,2.4,0V13.83h.75v3.56a1.94,1.94,0,1,1-3.88,0ZM81.5,17l-.77-.17a1.49,1.49,0,0,1-1.32-1.48,1.72,1.72,0,0,1,1.78-1.61A1.7,1.7,0,0,1,83,15.05l-.67.24a1.1,1.1,0,0,0-1.14-.92,1,1,0,0,0-1,.9.78.78,0,0,0,.69.78l.81.18a1.56,1.56,0,0,1,1.4,1.52,1.7,1.7,0,0,1-1.87,1.6,1.87,1.87,0,0,1-2-1.61l.72-.23a1.23,1.23,0,0,0,1.29,1.16c.75,0,1.11-.39,1.11-.86A.88.88,0,0,0,81.5,17Zm-.43,9.5H79.2v-5.4h1.89a2.51,2.51,0,0,1,2.57,2.71A2.5,2.5,0,0,1,81.07,26.46Zm6.38,0h-.76v-5.4h.76Zm1.8-11.94h-1.8v4.71H86.7V14.52H84.9v-.69h4.36Zm4,12.06a2.7,2.7,0,0,1-2.71-2.82,2.71,2.71,0,1,1,5.42,0A2.7,2.7,0,0,1,93.22,26.58Z"/></svg>